<?xml version="1.0" encoding="UTF-8"?><svg id="Capa_1" xmlns="http://www.w3.org/2000/svg" viewBox="0 0 32 32"><defs><style>.cls-1{fill:#f230b9;}</style></defs><path class="cls-1" d="M31.71,13.29c0-1.49-.7-2.6-2.08-3.31-.57-.29-1.13-.58-1.71-.84-.21-.1-.26-.17-.26-.4,.01-.63,.01-1.27,.01-1.91,0-.5,0-1,0-1.5,0-.37-.12-.67-.4-.95-1.34-1.31-2.56-2.54-3.74-3.74-.28-.29-.59-.42-.98-.42h0c-3.96,0-7.92,0-11.89,0h-3.96c-1.43,0-2.39,.97-2.39,2.41v.81c0,1.79,0,3.58,0,5.37,0,.18-.03,.22-.14,.27-.31,.14-.62,.3-.93,.45-.24,.12-.49,.25-.73,.36-1.49,.7-2.24,1.89-2.24,3.51v14.46c0,2.23,1.55,3.79,3.78,3.79h15.36c1.15,0,2.31,0,3.46,0,1.73,0,3.46,0,5.18,0,2.05,0,3.65-1.61,3.65-3.66v-.45c0-4.76,0-9.51,0-14.27Zm-2.41,1.06c-.46,.17-.89,.4-1.34,.64-.08,.04-.16,.09-.25,.13v-4.06c.08,.04,.16,.08,.24,.12,.43,.22,.84,.43,1.22,.67,.43,.28,.66,.74,.72,1.48,.05,.57-.1,.83-.6,1.01Zm-7.92-9.54c.05,1.52,1.01,2.17,2.25,2.2,.44,.01,1.35,0,1.81,0h.4s0,1.29,0,1.29c0,2.51,0,5.01,0,7.52,0,.2-.03,.26-.18,.33-1.11,.55-2.22,1.1-3.33,1.66-1.48,.74-2.96,1.48-4.45,2.2-1.26,.61-2.53,.61-3.8-.01-1.48-.73-2.95-1.46-4.43-2.2-1.1-.55-2.21-1.1-3.31-1.65-.17-.08-.2-.14-.2-.32,0-3.1,0-6.21,0-9.31V2.67c0-.48,.21-.61,.67-.61,.29,0,14.49,0,14.49,0,0,0,.02,.38,.02,.38,0,.46,.03,1.92,.04,2.36ZM3.45,27.23l-.07,.06c-.47,.42-.54,.96-.17,1.37,.36,.4,.89,.41,1.35,.03,.39-.33,.78-.66,1.17-.99l1.99-1.69c1.7-1.45,3.4-2.89,5.1-4.34,.14-.12,.18-.14,.35-.05,1.9,.91,3.82,.9,5.71-.02,.13-.06,.15-.06,.28,.05,2.18,1.86,4.37,3.72,6.55,5.58l1.65,1.4c.77,.65,1.27,.25,1.44,.04,.17-.19,.25-.41,.23-.63-.02-.28-.18-.54-.47-.79l-7.75-6.6,9.09-4.54h0c0,3.95,0,7.89,0,11.83,0,1.18-.73,1.92-1.91,1.92-7.99,0-15.97,0-23.96,0-1.15,0-1.89-.74-1.9-1.89,0-3.1,0-6.21,0-9.31v-2.54s0,0,0,0l9.09,4.54-7.76,6.61ZM22.8,2.53l2.99,2.92c-.2,.01-1.18,.06-1.86,.02-.56-.03-1.14,.01-1.13-.92,0-.51-.03-1.4,0-2.03ZM4.31,15.12c-.09-.05-.18-.09-.28-.14-.49-.25-.95-.49-1.44-.69-.4-.16-.51-.34-.5-.8,.03-.94,.37-1.52,1.13-1.88,.32-.15,.64-.32,.98-.49l.11-.06v4.06Z"/><rect class="cls-1" x="7.94" y="5.22" width="9.41" height="2.02" rx=".91" ry=".91"/><path class="cls-1" d="M8.95,11.41h14.1c.56,0,1.01-.46,1.01-1.01s-.46-1.01-1.01-1.01H8.95c-.56,0-1.01,.46-1.01,1.01s.46,1.01,1.01,1.01Z"/><path class="cls-1" d="M8.95,15.54h14.1c.56,0,1.01-.46,1.01-1.01s-.46-1.01-1.01-1.01H8.95c-.56,0-1.01,.46-1.01,1.01s.46,1.01,1.01,1.01Z"/></svg>
