<svg id="Capa_1" data-name="Capa 1" xmlns="http://www.w3.org/2000/svg" viewBox="0 0 32 32"><defs><style>.cls-1{fill:#b497ff;}</style></defs><path class="cls-1" d="M27.12,5.21a12.7,12.7,0,0,0-1.76-1.79A13.31,13.31,0,0,0,20.43.73a13.76,13.76,0,0,0-6.2-.26,7.2,7.2,0,0,0-1.49.41l-.17.06a8.75,8.75,0,0,0-1.68.76c-.15.09-.3.18-.46.26a4.14,4.14,0,0,0-1.29,1,4.41,4.41,0,0,1-.38.38A8.25,8.25,0,0,0,6.55,6.24a11.23,11.23,0,0,0-1,4.63,3.18,3.18,0,0,1-.24,1.34,9.41,9.41,0,0,1-.7,1.16c-.15.21-.3.43-.44.65-.41.67-.84,1.38-1.24,2.11a1.1,1.1,0,0,0,.25,1.46l.08.05a2.18,2.18,0,0,0,1.33.55h0a.21.21,0,0,1,.2,0s0,.08,0,.21a7.88,7.88,0,0,0-.24.9.43.43,0,0,0,.25.48c.09,0,.11.05.11.05s0,.08-.07.2a.61.61,0,0,0,.1.8,1.75,1.75,0,0,0,.53.47s0,0,0,0a2,2,0,0,0-.06.23.34.34,0,0,1,0,.14,2.09,2.09,0,0,0-.11,1.73,2.1,2.1,0,0,0,1.42,1A12.09,12.09,0,0,0,9.24,25a1.83,1.83,0,0,1,1.61,1,7.18,7.18,0,0,1,.68,3.1c0,.51,0,1,0,1.59,0,.26,0,.52,0,.8V32l.42-.42.11-.1a.61.61,0,0,0,.15-.17,6.72,6.72,0,0,0,.64-2.6v-.1a6.62,6.62,0,0,0-.45-2.78,4.5,4.5,0,0,0-1-1.6,1.45,1.45,0,0,0-1.19-.48,5.59,5.59,0,0,1-2.44-.46A1.09,1.09,0,0,1,6.93,22,1.89,1.89,0,0,1,7,21.75a2.61,2.61,0,0,0,.09-.5,1,1,0,0,0-.22-.72.59.59,0,0,1-.24-.72.52.52,0,0,0-.08-.49c-.21-.23-.17-.46-.09-.84l0-.18a1,1,0,0,0-.84-1.25L5.3,17l-.4-.11c-.18-.06-.24-.1-.25-.08a.68.68,0,0,1,.1-.22l.09-.2A3.23,3.23,0,0,1,5.06,16l.3-.47c.46-.74.94-1.51,1.45-2.24A1.91,1.91,0,0,0,7.19,12v-.64a7.38,7.38,0,0,1,.75-3.66,9.74,9.74,0,0,1,3.27-3.95,10.55,10.55,0,0,1,8.21-1.35,10.36,10.36,0,0,1,4.46,2.14,8,8,0,0,1,2.38,3.06,7.9,7.9,0,0,1,.61,3.55,10.31,10.31,0,0,1-1,3.5,7.53,7.53,0,0,1-.94,1.48l-.28.39a7.47,7.47,0,0,0-1.7,5.13,4.09,4.09,0,0,0,1.83,3l.13.09.46-.26-.09-.2c0-.1-.09-.2-.13-.29a3.92,3.92,0,0,1-.25-.61c0-.13-.09-.26-.13-.39a6.1,6.1,0,0,1-.32-1.36A6.14,6.14,0,0,1,26,17.45c.12-.17.24-.32.37-.48a7.22,7.22,0,0,0,1.11-1.75c.12-.3.24-.59.37-.88s.32-.74.46-1.11a9.77,9.77,0,0,0,.43-3.61A7.17,7.17,0,0,0,27.12,5.21Z"/></svg>