<svg id="Capa_1" data-name="Capa 1" xmlns="http://www.w3.org/2000/svg" viewBox="0 0 32 32"><defs><style>.cls-1{fill:#ff6d01;}</style></defs><path class="cls-1" d="M14.84.34h2.91l.25,0c.85.07,1.7.11,2.55.21A20.76,20.76,0,0,1,26.24,2a6.43,6.43,0,0,1,2.52,1.68,2.53,2.53,0,0,1,.69,1.66q0,10.65,0,21.32a1.8,1.8,0,0,1,0,.4,3.2,3.2,0,0,1-1.34,2,8.82,8.82,0,0,1-2.45,1.28,27.07,27.07,0,0,1-8.32,1.38A35.11,35.11,0,0,1,12,31.46a22.82,22.82,0,0,1-5-1.14,7.93,7.93,0,0,1-2.81-1.59,3,3,0,0,1-1-2.28q0-10.39,0-20.78a3,3,0,0,1,1-2.37,6.94,6.94,0,0,1,2-1.25A22.91,22.91,0,0,1,13.3.47ZM5.16,22.43v.31c0,1.23,0,2.46,0,3.7a.94.94,0,0,0,.36.83A8.29,8.29,0,0,0,6.6,28a17.94,17.94,0,0,0,6,1.53,34.47,34.47,0,0,0,6.66.07,22.15,22.15,0,0,0,5.65-1.14A6.63,6.63,0,0,0,27,27.36a1.17,1.17,0,0,0,.47-1c0-1.2,0-2.41,0-3.61v-.34c-.38.18-.71.36-1.05.5a22.46,22.46,0,0,1-7.84,1.62,47.12,47.12,0,0,1-5.18-.06A20.07,20.07,0,0,1,5.16,22.43Zm0-7.09v.44c0,1.18,0,2.36,0,3.54a1,1,0,0,0,.41.9A8.69,8.69,0,0,0,7,21.08a18.37,18.37,0,0,0,5.56,1.33,34.09,34.09,0,0,0,6.7.07,22.29,22.29,0,0,0,5.47-1.08A6.86,6.86,0,0,0,27,20.27a1.14,1.14,0,0,0,.47-1c0-1.2,0-2.4,0-3.6v-.36c-.29.15-.52.28-.75.38A21,21,0,0,1,20,17.35a33.09,33.09,0,0,1-6.6.07A20.94,20.94,0,0,1,5.16,15.34Zm22.27-7c-.75.3-1.46.64-2.2.89a27.71,27.71,0,0,1-7.93,1.25A32.62,32.62,0,0,1,10.68,10a16.78,16.78,0,0,1-5.39-1.7.68.68,0,0,0-.13,0c0,1.34,0,2.66,0,4a1,1,0,0,0,.4.87,6.79,6.79,0,0,0,1.17.74,17.8,17.8,0,0,0,5.82,1.46,33.29,33.29,0,0,0,8-.06,18.1,18.1,0,0,0,4.75-1.14,12.91,12.91,0,0,0,1.7-.95,1,1,0,0,0,.46-.95c0-1,0-1.91,0-2.87Zm-11.11.17c1.21-.08,2.42-.12,3.63-.24A18.54,18.54,0,0,0,25.25,7,8.69,8.69,0,0,0,27,6c.56-.4.54-.83,0-1.26A6.34,6.34,0,0,0,25.72,4a17.75,17.75,0,0,0-5.65-1.39A32.41,32.41,0,0,0,9.86,3,12,12,0,0,0,6.27,4.27,4.46,4.46,0,0,0,5.36,5a.52.52,0,0,0,0,.84,3.45,3.45,0,0,0,.91.71,17.11,17.11,0,0,0,2.36,1A29.35,29.35,0,0,0,16.32,8.48Z"/><path class="cls-1" d="M6.18,25.62a1,1,0,1,1,1,1A1,1,0,0,1,6.18,25.62Z"/><path class="cls-1" d="M8.2,18.58a1,1,0,0,1-2,0,1,1,0,0,1,2,0Z"/><path class="cls-1" d="M8.2,11.49a1,1,0,1,1-1-1A1,1,0,0,1,8.2,11.49Z"/></svg>