<svg id="Capa_1" data-name="Capa 1" xmlns="http://www.w3.org/2000/svg" viewBox="0 0 32 32"><defs><style>.cls-1{fill:#3aafe4;}</style></defs><path class="cls-1" d="M26.43,10V26.43A6,6,0,0,1,26,29a4.54,4.54,0,0,1-4.27,3C16,32,10.37,32,4.7,32A4.93,4.93,0,0,1,0,27c0-.87,0-1.75,0-2.62S.4,23.21,1.1,23.21c.95,0,1.89,0,2.83,0,.41,0,.54-.13.54-.57,0-3.58,0-7.16,0-10.73,0-2.67,0-5.34.07-8A3.75,3.75,0,0,1,8.17,0H28.25a3.92,3.92,0,0,1,3.76,4c0,1.57,0,3.14,0,4.71A1,1,0,0,1,30.89,10H26.43ZM25,2.11H8.05A1.73,1.73,0,0,0,6.51,3.89c-.06,6.24-.1,12.48-.16,18.73,0,.46.11.6.55.6,3.62,0,7.24,0,10.86,0,.79,0,1.14.38,1.14,1.25s0,1.65,0,2.47a2.83,2.83,0,0,0,3.64,2.82,3.08,3.08,0,0,0,2-3.13c0-7,0-14,0-21A7.23,7.23,0,0,1,25,2.11Zm-8,23.18H3.16c-1.23,0-1.23,0-1.23,1.34a2.91,2.91,0,0,0,3,3.22c.25,0,12.74,0,12.81,0a8.18,8.18,0,0,1-.69-2.18A20,20,0,0,1,16.94,25.29ZM26.43,7.86c1.19,0,2.32,0,3.45,0,.07,0,.2-.22.2-.34,0-1.18,0-2.36,0-3.54a1.92,1.92,0,0,0-1.79-1.87A1.87,1.87,0,0,0,26.44,4c0,.55,0,1.1,0,1.65Z"/><rect class="cls-1" x="8.77" y="4.89" width="6.98" height="2.09" rx="1.04"/><rect class="cls-1" x="8.77" y="9.19" width="12.81" height="2.09" rx="1.04"/><rect class="cls-1" x="8.77" y="13.45" width="12.81" height="2.09" rx="1.04"/><rect class="cls-1" x="8.77" y="17.74" width="12.81" height="2.09" rx="1.04"/></svg>