<svg id="Capa_1" data-name="Capa 1" xmlns="http://www.w3.org/2000/svg" viewBox="0 0 32 32"><defs><style>.cls-1{fill:none;stroke:#b497ff;stroke-miterlimit:10;stroke-width:2.2px;}.cls-2{fill:#b497ff;}</style></defs><path class="cls-1" d="M22.86,1.09c-4.21,0-8.41,0-12.62,0a3.31,3.31,0,0,0-2.1.71A3.45,3.45,0,0,0,6.78,4.65V26.81c0,.29,0,.59,0,.88a3.45,3.45,0,0,0,3.5,3.39q6.27,0,12.55,0a3.35,3.35,0,0,0,.63,0,3.45,3.45,0,0,0,2.87-3.48V4.63a3.1,3.1,0,0,0,0-.43A3.45,3.45,0,0,0,22.86,1.09Z"/><path class="cls-2" d="M16.56,27.5a1.86,1.86,0,0,1,0-3.72,1.86,1.86,0,0,1,0,3.72Z"/><rect class="cls-2" x="10.47" y="14.22" width="12.16" height="2.7" rx="1.35"/><path class="cls-2" d="M21.28,11.65H11.82a1.35,1.35,0,0,1,0-2.7h9.46a1.35,1.35,0,1,1,0,2.7Z"/><path class="cls-2" d="M21.28,6.27H11.82a1.35,1.35,0,1,1,0-2.7h9.46a1.35,1.35,0,0,1,0,2.7Z"/></svg>
